<?xml version="1.0" encoding="utf-8"?>
<!-- Generator: Adobe Illustrator 21.1.0, SVG Export Plug-In . SVG Version: 6.00 Build 0)  -->
<svg version="1.1" id="Layer_1" xmlns="http://www.w3.org/2000/svg" xmlns:xlink="http://www.w3.org/1999/xlink" x="0px" y="0px"
	 viewBox="0 0 356.7 143.6" style="enable-background:new 0 0 356.7 143.6;" xml:space="preserve">
<style type="text/css">
	.st0{fill:#091632;}
	.st1{fill:url(#SVGID_1_);}
</style>
<g>
	<g>
		<g>
			<path class="st0" d="M39,45.5v8.4h10.3v8.6c0,0.3-0.2,0.4-0.5,0.4H20.9c-0.3,0-0.4-0.2-0.4-0.4v-28c0-0.3,0.2-0.5,0.4-0.5h36.7
				c-0.2-4.7-4.1-8.3-8.8-8.3H20.9c-4.9,0-8.8,3.9-8.8,8.8v28c0,4.9,3.9,8.8,8.8,8.8h27.9c4.9,0,8.9-3.9,8.9-8.8v-17H39z"/>
			<path class="st0" d="M109.3,44.4v18.1c0,0.3-0.2,0.4-0.4,0.4h-28c-0.3,0-0.4-0.2-0.4-0.4v-28c0-0.3,0.2-0.5,0.4-0.5h36.7
				c-0.2-4.7-4.1-8.3-8.8-8.3h-28c-4.9,0-8.8,3.9-8.8,8.8v28c0,4.9,3.9,8.8,8.8,8.8h28c4.8,0,8.8-3.9,8.8-8.8V44.4H109.3z"/>
			<path class="st0" d="M159.4,25.7V34h41.9v-8.3H159.4z M159.4,44.3v27h8.4V52.7h26.9v-8.4H159.4z"/>
			<path class="st0" d="M212.7,25.7v26.9h8.4V25.7H212.7z M212.7,63v8.3h45.6V63H212.7z"/>
		</g>
		<path class="st0" d="M274.3,37.8l-9.5-12h-10.6l14.6,18.5l5.1,6.3c1.8-2.1,3.7-4.3,5.6-6.3L274.3,37.8z"/>
		<linearGradient id="SVGID_1_" gradientUnits="userSpaceOnUse" x1="267.1263" y1="45.6291" x2="344.5679" y2="45.6291">
			<stop  offset="0" style="stop-color:#2EB1D9"/>
			<stop  offset="1" style="stop-color:#006794"/>
		</linearGradient>
		<path class="st1" d="M344.4,17.1c-18,2.5-31.6,17.4-43.6,30c-3.5,3.7-6.9,7.3-10.2,11.1c-1.9,2.1-3.8,4.2-5.6,6.3
			c-6.2,7.1-12.1,14.4-17.8,21.8V74.2c4.1-5.4,8.4-10.8,12.8-16c1.8-2.2,3.6-4.3,5.5-6.5c5-5.7,10.1-11.3,15.4-16.8
			c12.2-12.6,25.4-27.5,43.6-30C343.9,5,345,17,344.4,17.1z"/>
	</g>
	<g>
		<path class="st0" d="M167.9,105.5c-7.2,0-13,5.8-13,13c0,7.2,5.8,13,13,13s13-5.8,13-13C180.9,111.4,175.1,105.5,167.9,105.5z
			 M167.9,129.9c-6.3,0-11.5-5.1-11.5-11.3c0-6.3,5.1-11.3,11.5-11.3c6.3,0,11.5,5.1,11.5,11.3C179.3,124.8,174.2,129.9,167.9,129.9
			z"/>
		<path class="st0" d="M218.2,109.3h-14.8l-10.2,13.5h15.4c1.9,0,3.8-0.9,5-2.5l1.4-1.9c0.5-0.6,0.4-1.4-0.1-2l-0.1-0.1
			c1.4-0.3,2.6-1.1,3.5-2.2l1.5-1.9C220.6,111.1,219.7,109.3,218.2,109.3z M207.8,118.1l-1,1.4c-0.3,0.3-0.6,0.5-1.1,0.5h-3.1l2-2.6
			h2.9C207.9,117.3,208.1,117.8,207.8,118.1z M211.8,112.9L211,114c-0.3,0.4-0.7,0.6-1.2,0.6h-3.1l1.8-2.4h2.9
			C211.8,112.1,212,112.6,211.8,112.9z"/>
		<path class="st0" d="M240.6,109.3h-11.8c-2,0-3.8,0.9-5,2.5l-6.1,8c-0.9,1.2-0.1,2.9,1.5,2.9h11.7c2,0,3.9-0.9,5.1-2.5l6.1-8
			C243,111.1,242.1,109.3,240.6,109.3z M234.2,113l-4.8,6.3c-0.3,0.4-0.8,0.7-1.4,0.7H226c-0.4,0-0.6-0.4-0.4-0.7l4.9-6.5
			c0.3-0.4,0.8-0.6,1.3-0.6h1.9C234.2,112.1,234.5,112.6,234.2,113z"/>
		<path class="st0" d="M263.2,109.3h-14.7l-10.2,13.5H253c0,0,2.2-2.8,2.1-2.8s-7.4,0-7.4,0l2-2.6h7.4l2.1-2.8l-7.4,0l1.8-2.4h7.3
			L263.2,109.3z"/>
		<polygon class="st0" points="267.3,109.3 274.8,109.3 264.6,122.8 257.1,122.8 		"/>
		<polygon class="st0" points="286.6,122.8 280.7,122.8 279.2,116 274.1,122.8 269.2,122.8 279.4,109.3 285.1,109.3 286.6,116.1 
			291.8,109.3 296.8,109.3 		"/>
		<path class="st0" d="M308.6,114h7.4l1.2-1.6c0.9-1.2,0.1-3-1.5-3h-11.6c-2,0-3.9,0.9-5.1,2.5l-6,7.9c-0.9,1.2-0.1,3,1.5,3H306
			c2.1,0,4.1-1,5.3-2.6l1.4-1.8h1.6l2.2-2.8c-0.8,0-8.2,0-9.1,0l-2.9,3.8c-0.3,0.4-0.8,0.6-1.3,0.6h-2c-0.4,0-0.6-0.5-0.4-0.8
			l4.8-6.4c0.3-0.4,0.8-0.7,1.3-0.7h2c0.4,0,0.6,0.4,0.4,0.8L308.6,114z"/>
		<path class="st0" d="M200,127.8c-9.5,0.2-18.1,0.6-22.6,0.9l-4.7-8.9C181.4,128.2,200.3,126.7,200,127.8z"/>
		<path class="st0" d="M159.9,135.2c-1.6-1.4-0.5-6.1,3.3-12.3c7.8-12.9,18.6-21.5,18.6-21.5c-8.2,4.9-12.9,9.9-16.9,14.8
			c-8.2,10.1-10.9,19.7-7.5,22.1c1.5,1,6.5-0.1,10.5-6.1C165.6,134.2,161.7,136.8,159.9,135.2z"/>
	</g>
	<g>
		<path class="st0" d="M24.2,112.4c0-0.9-0.2-1.6-0.5-2.1c-0.3-0.4-0.9-0.7-1.6-0.7c-0.6,0-1.1,0.2-1.4,0.5s-0.5,0.8-0.5,1.4
			c0,0.6,0.2,1.1,0.5,1.6c0.3,0.5,0.9,1.1,1.9,2c1.2,1.1,1.9,1.9,2.3,2.4c0.4,0.6,0.5,1.2,0.5,1.8c0,1.1-0.3,2-0.9,2.7
			c-0.6,0.6-1.4,1-2.5,1c-1.1,0-2-0.3-2.5-0.9s-0.8-1.6-0.8-3.1h1.1c0,1.1,0.2,1.8,0.5,2.3c0.3,0.5,0.9,0.7,1.7,0.7
			c0.7,0,1.2-0.2,1.6-0.6c0.4-0.4,0.6-1,0.6-1.8c0-0.5-0.1-1-0.4-1.4c-0.3-0.4-0.9-1.1-2-2c-1.1-1-1.8-1.8-2.2-2.4
			c-0.4-0.6-0.6-1.3-0.6-2c0-1,0.3-1.8,0.8-2.4c0.5-0.6,1.3-0.9,2.3-0.9c1.1,0,2,0.3,2.5,0.9c0.5,0.6,0.8,1.5,0.8,2.8H24.2z"/>
		<path class="st0" d="M28,108.9h0.6h2.3c1.5,0,2.5,0.3,3,0.8c0.5,0.5,0.7,1.5,0.7,3.1c0,1.6-0.2,2.6-0.7,3.2s-1.5,0.8-3,0.8h-1.7
			v6.2h-0.6H28V108.9z M29.1,115.7h1.7c1,0,1.7-0.2,2.1-0.6c0.3-0.4,0.5-1.2,0.5-2.3c0-1.2-0.2-1.9-0.5-2.3c-0.3-0.4-1-0.6-2.1-0.6
			h-1.7V115.7z"/>
		<path class="st0" d="M37.4,122.1c-0.6-0.7-0.9-1.6-0.9-2.9v-6.8c0-1.2,0.3-2.1,0.9-2.8c0.6-0.7,1.5-1,2.6-1c1.1,0,2,0.3,2.6,1
			c0.6,0.7,0.9,1.6,0.9,2.8v6.8c0,1.3-0.3,2.2-0.9,2.9c-0.6,0.7-1.5,1-2.6,1C38.9,123.1,38,122.8,37.4,122.1z M41.8,121.4
			c0.4-0.5,0.6-1.2,0.6-2.2v-6.8c0-0.9-0.2-1.6-0.6-2.1c-0.4-0.5-1-0.7-1.8-0.7c-0.8,0-1.4,0.2-1.8,0.7c-0.4,0.5-0.6,1.1-0.6,2.1
			v6.8c0,1,0.2,1.7,0.6,2.2s1,0.7,1.8,0.7C40.8,122.2,41.4,121.9,41.8,121.4z"/>
		<path class="st0" d="M47.5,122.9h-0.6h-0.6v-14h0.8h0.8l4.9,12v-12h0.6H54v14h-0.8h-0.8l-4.9-12V122.9z"/>
		<path class="st0" d="M61.9,112.4c0-0.9-0.2-1.6-0.5-2.1c-0.3-0.4-0.9-0.7-1.6-0.7c-0.6,0-1.1,0.2-1.4,0.5s-0.5,0.8-0.5,1.4
			c0,0.6,0.2,1.1,0.5,1.6c0.3,0.5,0.9,1.1,1.9,2c1.2,1.1,1.9,1.9,2.3,2.4c0.4,0.6,0.5,1.2,0.5,1.8c0,1.1-0.3,2-0.9,2.7
			c-0.6,0.6-1.4,1-2.5,1c-1.1,0-2-0.3-2.5-0.9s-0.8-1.6-0.8-3.1h1.1c0,1.1,0.2,1.8,0.5,2.3c0.3,0.5,0.9,0.7,1.7,0.7
			c0.7,0,1.2-0.2,1.6-0.6c0.4-0.4,0.6-1,0.6-1.8c0-0.5-0.1-1-0.4-1.4c-0.3-0.4-0.9-1.1-2-2c-1.1-1-1.8-1.8-2.2-2.4
			c-0.4-0.6-0.6-1.3-0.6-2c0-1,0.3-1.8,0.8-2.4c0.5-0.6,1.3-0.9,2.3-0.9c1.1,0,2,0.3,2.5,0.9c0.5,0.6,0.8,1.5,0.8,2.8H61.9z"/>
		<path class="st0" d="M66.5,122.1c-0.6-0.7-0.9-1.6-0.9-2.9v-6.8c0-1.2,0.3-2.1,0.9-2.8c0.6-0.7,1.5-1,2.6-1c1.1,0,2,0.3,2.6,1
			c0.6,0.7,0.9,1.6,0.9,2.8v6.8c0,1.3-0.3,2.2-0.9,2.9c-0.6,0.7-1.5,1-2.6,1C67.9,123.1,67.1,122.8,66.5,122.1z M70.9,121.4
			c0.4-0.5,0.6-1.2,0.6-2.2v-6.8c0-0.9-0.2-1.6-0.6-2.1c-0.4-0.5-1-0.7-1.8-0.7c-0.8,0-1.4,0.2-1.8,0.7c-0.4,0.5-0.6,1.1-0.6,2.1
			v6.8c0,1,0.2,1.7,0.6,2.2s1,0.7,1.8,0.7C69.9,122.2,70.5,121.9,70.9,121.4z"/>
		<path class="st0" d="M75.5,108.9h0.6h2.3c1.5,0,2.5,0.2,3.1,0.7s0.8,1.5,0.8,3c0,1.2-0.3,2.1-0.8,2.5c-0.3,0.3-0.8,0.5-1.4,0.6
			c0.7,0.1,1.2,0.3,1.5,0.6c0.4,0.4,0.6,1,0.6,1.9c0,0.8,0,1.6,0,2.4s0.1,1.5,0.2,2.3h-0.6h-0.6c-0.1-0.8-0.2-1.6-0.2-2.3
			c0-0.7,0-1.5,0-2.3c0-0.7-0.2-1.2-0.5-1.6c-0.4-0.3-1-0.5-1.8-0.5h-2v6.7h-0.6h-0.6V108.9z M76.7,115.2h1.8c1.1,0,1.8-0.2,2.1-0.5
			c0.4-0.4,0.5-1.1,0.5-2.2c0-1-0.2-1.7-0.5-2.1c-0.4-0.4-1.1-0.5-2.1-0.5h-1.8V115.2z"/>
		<path class="st0" d="M85,122.9v-14h5.6v0.5v0.5h-4.5v5.3h4.2v0.5v0.5h-4.2v5.7h4.6v0.5v0.5H85z"/>
		<path class="st0" d="M92.8,108.9h0.6h2.2c1.6,0,2.7,0.3,3.3,0.8c0.6,0.6,0.9,1.5,0.9,3v6.3c0,1.5-0.3,2.5-0.9,3.1
			c-0.6,0.6-1.7,0.9-3.3,0.9h-2.2h-0.6V108.9z M94,121.9h1.7c1.2,0,2-0.2,2.4-0.6c0.4-0.4,0.7-1.2,0.7-2.3v-6.3
			c0-1.1-0.2-1.8-0.7-2.2c-0.4-0.4-1.3-0.6-2.4-0.6H94V121.9z"/>
		<path class="st0" d="M107.2,108.9h0.6h2.5c1.5,0,2.5,0.2,3,0.7c0.5,0.5,0.7,1.4,0.7,2.8c0,1.3-0.2,2.2-0.7,2.7
			c-0.3,0.2-0.7,0.4-1.2,0.5c0.7,0.1,1.1,0.3,1.4,0.7c0.4,0.5,0.6,1.5,0.6,2.9c0,1.5-0.2,2.5-0.7,3c-0.5,0.5-1.4,0.7-2.8,0.7h-2.7
			h-0.6V108.9z M108.4,115.1h1.9c1,0,1.7-0.2,2-0.5c0.3-0.4,0.5-1.1,0.5-2.1c0-1-0.2-1.7-0.5-2.1c-0.3-0.3-1-0.5-2-0.5h-1.9V115.1z
			 M108.4,121.9h2.2c0.9,0,1.6-0.2,1.9-0.6c0.3-0.4,0.5-1.2,0.5-2.3c0-1.1-0.2-1.9-0.6-2.3c-0.4-0.4-1.1-0.6-2.3-0.6h-1.7V121.9z"/>
		<path class="st0" d="M119.2,116.7l-3.5-7.8h0.6h0.6l2.8,6.8l0,0l2.9-6.7h0.6h0.6l-3.5,7.8v6.2h-0.6h-0.6V116.7z"/>
	</g>
</g>
</svg>
